<svg width="549" height="629" viewBox="0 0 549 629" fill="none" xmlns="http://www.w3.org/2000/svg">
<path opacity="0.3" d="M448.237 621.018L375.063 543.191C347.34 570.863 316.685 592.149 283.097 607.049C249.509 621.683 214.455 629 177.935 629C141.948 629 110.493 621.949 83.5696 607.847C56.9126 593.745 36.2535 574.455 21.5921 549.976C7.19739 525.497 0 497.692 0 466.561C0 431.706 9.86314 399.644 29.5893 370.376C49.3154 340.841 80.2374 308.912 122.355 274.589C102.096 250.642 86.3685 227.627 75.1726 205.542C63.9767 183.458 58.3788 160.709 58.3788 137.294C58.3788 95.7868 73.4399 62.5275 103.562 37.5165C133.951 12.5055 174.337 0 224.718 0C253.774 0 282.43 5.98666 310.687 17.96C338.943 29.9334 361.868 45.6318 379.462 65.0552L373.464 72.6383C355.337 56.4078 334.678 43.3701 311.487 33.5254C288.562 23.6806 265.903 18.7582 243.511 18.7582C212.323 18.7582 187.265 28.2039 168.339 47.0952C149.679 65.7204 140.349 89.8001 140.349 119.334C140.349 143.813 147.546 168.292 161.941 192.771C176.336 217.25 198.061 244.788 227.117 275.387L412.25 473.746C433.042 442.615 449.036 407.493 460.232 368.38C471.695 329.267 477.693 287.626 478.226 243.458H489.822C489.822 289.755 483.957 333.391 472.228 374.367C460.499 415.076 443.705 452.06 421.846 485.32L549 621.018H448.237ZM225.518 589.887C250.042 589.887 274.167 584.832 297.891 574.721C321.616 564.61 343.608 550.375 363.867 532.016L145.147 300.531L132.752 287.36C108.76 310.243 91.0336 332.726 79.5711 354.81C68.1086 376.894 62.3773 401.373 62.3773 428.247C62.3773 457.249 69.4414 484.122 83.5696 508.867C97.9644 533.612 117.557 553.302 142.348 567.936C167.139 582.57 194.862 589.887 225.518 589.887Z" fill="#E9E0CF"/>
</svg>
