<svg width="19" height="19" viewBox="0 0 19 19" fill="none" xmlns="http://www.w3.org/2000/svg">
<path d="M9.5424 1.79524C12.0539 1.79524 12.3513 1.80626 13.339 1.85032C14.257 1.89071 14.7527 2.04492 15.0831 2.17344C15.5201 2.34234 15.8359 2.54796 16.1627 2.87475C16.4931 3.20521 16.6951 3.51732 16.864 3.95426C16.9925 4.28472 17.1467 4.78409 17.1871 5.69837C17.2312 6.68976 17.2422 6.98717 17.2422 9.49501C17.2422 12.0065 17.2312 12.3039 17.1871 13.2917C17.1467 14.2096 16.9925 14.7053 16.864 15.0358C16.6951 15.4727 16.4895 15.7885 16.1627 16.1153C15.8322 16.4457 15.5201 16.6477 15.0831 16.8166C14.7527 16.9451 14.2533 17.0993 13.339 17.1397C12.3477 17.1838 12.0502 17.1948 9.5424 17.1948C7.03088 17.1948 6.73347 17.1838 5.74575 17.1397C4.8278 17.0993 4.33211 16.9451 4.00164 16.8166C3.5647 16.6477 3.24892 16.4421 2.92213 16.1153C2.59167 15.7848 2.38972 15.4727 2.22082 15.0358C2.09231 14.7053 1.93809 14.2059 1.8977 13.2917C1.85364 12.3003 1.84262 12.0029 1.84262 9.49501C1.84262 6.9835 1.85364 6.68608 1.8977 5.69837C1.93809 4.78042 2.09231 4.28472 2.22082 3.95426C2.38972 3.51732 2.59534 3.20154 2.92213 2.87475C3.2526 2.54429 3.5647 2.34234 4.00164 2.17344C4.33211 2.04492 4.83147 1.89071 5.74575 1.85032C6.73347 1.80626 7.03088 1.79524 9.5424 1.79524ZM9.5424 0.102539C6.99049 0.102539 6.67105 0.113554 5.66864 0.157616C4.66991 0.201678 3.98329 0.363237 3.38845 0.594561C2.76792 0.8369 2.24285 1.15635 1.72145 1.68141C1.19639 2.20281 0.876939 2.72788 0.6346 3.34474C0.403276 3.94325 0.241717 4.6262 0.197655 5.62493C0.153594 6.63101 0.142578 6.95045 0.142578 9.50236C0.142578 12.0543 0.153594 12.3737 0.197655 13.3761C0.241717 14.3748 0.403276 15.0615 0.6346 15.6563C0.876939 16.2768 1.19639 16.8019 1.72145 17.3233C2.24285 17.8447 2.76792 18.1678 3.38478 18.4065C3.98329 18.6378 4.66624 18.7994 5.66497 18.8434C6.66737 18.8875 6.98682 18.8985 9.53872 18.8985C12.0906 18.8985 12.4101 18.8875 13.4125 18.8434C14.4112 18.7994 15.0978 18.6378 15.6927 18.4065C16.3095 18.1678 16.8346 17.8447 17.356 17.3233C17.8774 16.8019 18.2005 16.2768 18.4392 15.66C18.6705 15.0615 18.8321 14.3785 18.8761 13.3798C18.9202 12.3774 18.9312 12.0579 18.9312 9.50603C18.9312 6.95413 18.9202 6.63468 18.8761 5.63228C18.8321 4.63355 18.6705 3.94692 18.4392 3.35209C18.2079 2.72788 17.8884 2.20281 17.3633 1.68141C16.8419 1.16002 16.3169 0.8369 15.7 0.598233C15.1015 0.366909 14.4186 0.20535 13.4198 0.161288C12.4137 0.113554 12.0943 0.102539 9.5424 0.102539Z" fill="#0E153F"/>
<path d="M9.54327 4.67383C6.87754 4.67383 4.71484 6.83652 4.71484 9.50225C4.71484 12.168 6.87754 14.3307 9.54327 14.3307C12.209 14.3307 14.3717 12.168 14.3717 9.50225C14.3717 6.83652 12.209 4.67383 9.54327 4.67383ZM9.54327 12.6343C7.81385 12.6343 6.41122 11.2317 6.41122 9.50225C6.41122 7.77283 7.81385 6.3702 9.54327 6.3702C11.2727 6.3702 12.6753 7.77283 12.6753 9.50225C12.6753 11.2317 11.2727 12.6343 9.54327 12.6343Z" fill="#0E153F"/>
<path d="M15.69 4.48271C15.69 5.10692 15.1833 5.60996 14.5628 5.60996C13.9386 5.60996 13.4355 5.10325 13.4355 4.48271C13.4355 3.85851 13.9423 3.35547 14.5628 3.35547C15.1833 3.35547 15.69 3.86218 15.69 4.48271Z" fill="#0E153F"/>
</svg>
