<svg width="20" height="19" viewBox="0 0 20 19" fill="none" xmlns="http://www.w3.org/2000/svg">
<path d="M4.34923 19H0.311715V6.29375H4.34923V19ZM2.33047 4.5125C1.02422 4.5125 0.0742188 3.5625 0.0742188 2.25625C0.0742188 0.95 1.14297 0 2.33047 0C3.63672 0 4.58672 0.95 4.58672 2.25625C4.58672 3.5625 3.63672 4.5125 2.33047 4.5125ZM19.0742 19H15.0367V12.1125C15.0367 10.0938 14.2055 9.5 13.018 9.5C11.8305 9.5 10.643 10.45 10.643 12.2312V19H6.60547V6.29375H10.4055V8.075C10.7617 7.24375 12.1867 5.9375 14.2055 5.9375C16.4617 5.9375 18.8367 7.24375 18.8367 11.1625V19H19.0742Z" fill="#0E153F"/>
</svg>
