<svg width="284" height="159" viewBox="0 0 284 159" fill="none" xmlns="http://www.w3.org/2000/svg">
<path d="M63.3764 65.5567C60.2754 68.8192 56.2538 71.4357 51.3116 73.4061C46.4017 75.3765 41.4272 76.3617 36.3881 76.3617C29.1848 76.3617 22.8375 74.7789 17.3461 71.6133C11.8548 68.4477 7.59095 63.9739 4.55457 58.1919C1.51819 52.3775 0 45.7072 0 38.1809C0 30.6545 1.51819 24.0003 4.55457 18.2183C7.59095 12.4039 11.8548 7.91397 17.3461 4.74838C22.8375 1.58279 29.1848 0 36.3881 0C41.298 0 46.111 0.888302 50.8271 2.66491C55.5754 4.44151 59.4032 6.7834 62.3104 9.69057L61.3898 10.6112C58.8056 8.15623 55.4785 6.18582 51.4085 4.69993C47.3708 3.21404 43.3976 2.4711 39.4891 2.4711C33.8039 2.4711 28.781 3.95698 24.4202 6.92876C20.0918 9.90053 16.7324 14.0836 14.342 19.4781C11.984 24.8725 10.805 31.1067 10.805 38.1809C10.805 45.255 11.984 51.4892 14.342 56.8837C16.7324 62.2781 20.1079 66.4612 24.4687 69.433C28.8618 72.4047 33.9009 73.8906 39.586 73.8906C43.6237 73.8906 47.7745 73.0185 52.0384 71.2742C56.3022 69.5299 59.8231 67.2364 62.6011 64.3939L63.3764 65.5567Z" fill="#B8A271"/>
<path d="M138.095 75.3927L133.055 18.3152L105.825 76.3617H104.371L75.8811 17.7337L70.5028 75.3927H68.4193L75.7842 0H77.1893L109.217 65.4598L139.693 0H141.05L148.415 75.3927H138.095Z" fill="#B8A271"/>
<path d="M208.709 75.3927L199.842 65.9443C196.482 69.3037 192.768 71.8879 188.698 73.6968C184.628 75.4734 180.38 76.3617 175.954 76.3617C171.594 76.3617 167.782 75.5057 164.52 73.7937C161.289 72.0817 158.786 69.7398 157.009 66.7681C155.265 63.7963 154.393 60.4207 154.393 56.6414C154.393 52.4098 155.588 48.5175 157.978 44.9643C160.369 41.3787 164.116 37.5025 169.219 33.3356C166.765 30.4284 164.859 27.6343 163.502 24.9532C162.145 22.2722 161.467 19.5104 161.467 16.6678C161.467 11.6287 163.292 7.59095 166.942 4.55457C170.625 1.51819 175.518 0 181.623 0C185.144 0 188.617 0.726791 192.041 2.18038C195.465 3.63396 198.243 5.53978 200.375 7.89782L199.648 8.81842C197.451 6.848 194.948 5.26521 192.138 4.07004C189.36 2.87487 186.614 2.27728 183.901 2.27728C180.121 2.27728 177.085 3.424 174.792 5.71744C172.53 7.97857 171.4 10.9019 171.4 14.4874C171.4 17.4592 172.272 20.431 174.016 23.4027C175.761 26.3745 178.393 29.7178 181.914 33.4325L204.348 57.5135C206.867 53.7342 208.805 49.4704 210.162 44.722C211.551 39.9736 212.278 34.9184 212.343 29.5562H213.748C213.748 35.1768 213.037 40.4743 211.616 45.4488C210.194 50.391 208.159 54.8809 205.511 58.9187L220.919 75.3927H208.709ZM181.72 71.6133C184.692 71.6133 187.615 70.9996 190.49 69.7721C193.365 68.5446 196.03 66.8165 198.485 64.5877L171.981 36.485L170.479 34.8861C167.572 37.664 165.424 40.3935 164.035 43.0746C162.646 45.7557 161.952 48.7274 161.952 51.9899C161.952 55.5108 162.808 58.7733 164.52 61.7774C166.264 64.7815 168.638 67.1718 171.642 68.9484C174.646 70.725 178.006 71.6133 181.72 71.6133Z" fill="#B8A271"/>
<path d="M264.488 54.6548H229.553L221.025 75.3927H218.942L250 0H251.308L283.82 75.3927H273.306L264.488 54.6548ZM264.488 54.6548L246.705 12.8885L229.553 54.6548H264.488Z" fill="#B8A271"/>
<path fill-rule="evenodd" clip-rule="evenodd" d="M15.9992 110.135C15.3365 113.779 12.1651 116.241 8.33096 116.241C3.59746 116.241 0 112.501 0 107.626C0 102.798 3.59746 99.1055 8.33096 99.1055C12.1888 99.1055 15.3602 101.543 15.9519 105.022H13.4905C12.8751 102.798 10.7687 101.259 8.33096 101.259C4.94651 101.259 2.34308 103.981 2.34308 107.626C2.34308 111.318 4.94651 114.087 8.33096 114.087C10.7924 114.087 12.9461 112.454 13.4905 110.135H15.9992ZM20.0932 115.957H17.9394V99.3895H20.0695V105.78C20.9215 104.762 22.1759 104.123 23.6433 104.123C26.3651 104.123 28.2348 106.087 28.2348 109.306V115.957H26.0337V109.353C26.0337 107.507 24.9923 106.135 23.1463 106.135C21.3949 106.135 20.0932 107.413 20.0932 109.472V115.957ZM34.4453 116.241C35.9127 116.241 37.3091 115.483 38.0901 114.395V115.957H40.2202V108.785C40.2202 105.945 38.3741 104.123 35.3447 104.123C32.5756 104.123 30.4928 105.827 30.3981 108.194H32.5519C32.6466 106.868 33.8773 105.922 35.321 105.922C37.025 105.922 38.0427 106.939 38.0427 108.596V108.975H35.6997C32.1732 108.975 30.2561 110.513 30.2561 112.785C30.2561 114.868 31.9129 116.241 34.4453 116.241ZM32.3862 112.738C32.3862 111.342 33.5933 110.608 35.747 110.608H38.0901V110.963C38.0901 112.951 36.599 114.537 34.611 114.537C33.1909 114.537 32.3862 113.803 32.3862 112.738ZM50.8319 104.407H52.9856V115.957H50.8556V114.584C50.0035 115.602 48.7491 116.241 47.2818 116.241C44.56 116.241 42.6903 114.276 42.6903 111.058V104.407H44.8913V111.01C44.8913 112.856 45.9327 114.229 47.7788 114.229C49.5302 114.229 50.8319 112.951 50.8319 110.892V104.407ZM59.1015 115.957H61.3499L66.0597 104.407H63.693L60.2848 113.188L56.8767 104.407H54.439L59.1015 115.957ZM77.7531 112.336C77.2088 114.608 75.055 116.241 72.2386 116.241C68.7595 116.241 66.3217 113.566 66.3217 110.277C66.3217 106.75 69.0908 104.123 72.2859 104.123C75.481 104.123 77.8715 106.561 77.8715 109.685C77.8715 109.922 77.8715 110.253 77.8005 110.655H68.4281C68.6175 112.904 70.2742 114.395 72.3569 114.395C73.919 114.395 75.268 113.566 75.5994 112.336H77.7531ZM72.2859 105.993C70.5819 105.993 69.0908 107.105 68.5938 108.856H75.6467C75.5521 107.247 74.1557 105.993 72.2859 105.993ZM83.4232 116.241C84.8906 116.241 86.2869 115.483 87.068 114.395V115.957H89.198V108.785C89.198 105.945 87.352 104.123 84.3225 104.123C81.5534 104.123 79.4707 105.827 79.376 108.194H81.5298C81.6244 106.868 82.8551 105.922 84.2989 105.922C86.0029 105.922 87.0206 106.939 87.0206 108.596V108.975H84.6775C81.1511 108.975 79.234 110.513 79.234 112.785C79.234 114.868 80.8907 116.241 83.4232 116.241ZM81.3641 112.738C81.3641 111.342 82.5711 110.608 84.7249 110.608H87.068V110.963C87.068 112.951 85.5769 114.537 83.5888 114.537C82.1688 114.537 81.3641 113.803 81.3641 112.738ZM99.8098 104.407H101.964V115.957H99.8334V114.584C98.9814 115.602 97.727 116.241 96.2597 116.241C93.5379 116.241 91.6681 114.276 91.6681 111.058V104.407H93.8692V111.01C93.8692 112.856 94.9106 114.229 96.7567 114.229C98.5081 114.229 99.8098 112.951 99.8098 110.892V104.407ZM109.983 115.957H112.208V106.537C112.208 104.383 112.113 102.608 112.113 102.608C112.113 102.608 112.634 104.289 113.368 106.324L117.486 115.957H119.663L123.71 106.395C124.42 104.36 124.941 102.656 124.941 102.656C124.941 102.656 124.823 104.431 124.823 106.584V115.957H127.071V99.3895H124.042L118.575 112.951L113.036 99.3895H109.983V115.957ZM137.866 104.407H140.02V115.957H137.89V114.584C137.038 115.602 135.784 116.241 134.316 116.241C131.594 116.241 129.725 114.276 129.725 111.058V104.407H131.926V111.01C131.926 112.856 132.967 114.229 134.813 114.229C136.565 114.229 137.866 112.951 137.866 110.892V104.407ZM145 99.3895H142.823V115.957H145V99.3895ZM159.141 110.182C159.141 113.614 156.442 116.241 153.082 116.241C149.721 116.241 147.046 113.614 147.046 110.182C147.046 106.797 149.721 104.123 153.082 104.123C156.442 104.123 159.141 106.797 159.141 110.182ZM153.082 106.135C150.857 106.135 149.176 107.91 149.176 110.182C149.176 112.478 150.857 114.229 153.082 114.229C155.283 114.229 157.01 112.478 157.01 110.182C157.01 107.91 155.283 106.135 153.082 106.135ZM161.175 115.957H163.329V109.472C163.329 107.413 164.63 106.135 166.382 106.135C168.228 106.135 169.269 107.507 169.269 109.353V115.957H171.47V109.306C171.47 106.087 169.601 104.123 166.879 104.123C165.411 104.123 164.157 104.762 163.305 105.78V104.407H161.175V115.957ZM188.555 114.418C187.159 115.625 185.455 116.241 183.656 116.241C180.508 116.241 178.473 114.418 178.473 111.91C178.473 109.543 180.106 108.288 181.905 107.294C180.934 106.229 179.893 104.928 179.893 103.295C179.893 100.881 181.834 99.1055 184.39 99.1055C186.899 99.1055 188.674 100.715 188.674 103.129C188.674 105.448 186.875 106.632 184.982 107.626L188.555 111.413C188.981 110.679 189.336 109.78 189.62 108.762L189.928 107.531H192.2L191.845 108.856C191.395 110.466 190.756 111.839 189.952 112.927L192.792 115.957H189.999L188.555 114.418ZM183.135 108.596C181.763 109.377 180.698 110.229 180.698 111.649C180.698 113.14 181.881 114.347 183.846 114.347C185.147 114.347 186.307 113.898 187.254 113.022L183.135 108.596ZM184.437 100.975C183.064 100.975 182.047 101.969 182.047 103.271C182.047 104.336 182.851 105.306 183.775 106.324C185.36 105.519 186.662 104.691 186.662 103.224C186.662 101.969 185.692 100.975 184.437 100.975ZM196.669 115.957H199.059L200.267 112.241H206.42L207.603 115.957H210.089L204.479 99.3895H202.302L196.669 115.957ZM200.74 110.087L203.32 102.395L205.852 110.087H200.74ZM219.536 112.525C219.536 114.702 217.69 116.241 215.063 116.241C212.436 116.241 210.59 114.868 210.4 112.478H212.483C212.601 113.732 213.595 114.513 215.063 114.513C216.53 114.513 217.43 113.779 217.43 112.738C217.43 111.488 216.07 111.182 214.567 110.843C212.711 110.424 210.637 109.956 210.637 107.602C210.637 105.425 212.459 104.123 214.826 104.123C217.24 104.123 219.063 105.354 219.299 107.578H217.169C217.004 106.561 216.104 105.803 214.802 105.803C213.714 105.803 212.672 106.277 212.672 107.389C212.672 108.498 213.94 108.763 215.385 109.065C217.304 109.466 219.536 109.933 219.536 112.525ZM225.429 116.241C228.056 116.241 229.902 114.702 229.902 112.525C229.902 109.933 227.67 109.466 225.752 109.065C224.306 108.763 223.039 108.498 223.039 107.389C223.039 106.277 224.08 105.803 225.169 105.803C226.471 105.803 227.37 106.561 227.536 107.578H229.666C229.429 105.354 227.607 104.123 225.193 104.123C222.826 104.123 221.003 105.425 221.003 107.602C221.003 109.956 223.078 110.424 224.934 110.843C226.436 111.182 227.796 111.488 227.796 112.738C227.796 113.779 226.897 114.513 225.429 114.513C223.962 114.513 222.968 113.732 222.85 112.478H220.767C220.956 114.868 222.802 116.241 225.429 116.241ZM243.275 110.182C243.275 113.614 240.577 116.241 237.216 116.241C233.855 116.241 231.181 113.614 231.181 110.182C231.181 106.797 233.855 104.123 237.216 104.123C240.577 104.123 243.275 106.797 243.275 110.182ZM237.216 106.135C234.991 106.135 233.311 107.91 233.311 110.182C233.311 112.478 234.991 114.229 237.216 114.229C239.417 114.229 241.145 112.478 241.145 110.182C241.145 107.91 239.417 106.135 237.216 106.135ZM250.564 116.241C253.285 116.241 255.652 114.489 255.983 111.91H253.782C253.475 113.282 252.078 114.229 250.54 114.229C248.362 114.229 246.682 112.478 246.682 110.206C246.682 107.886 248.362 106.135 250.54 106.135C252.078 106.135 253.451 107.129 253.782 108.383H255.983C255.605 105.945 253.262 104.123 250.564 104.123C247.226 104.123 244.552 106.75 244.552 110.206C244.552 113.661 247.226 116.241 250.564 116.241ZM257.895 115.957V104.407H260.072V115.957H257.895ZM260.167 102.111H257.8V99.3895H260.167V102.111ZM268.035 116.241C270.852 116.241 273.006 114.608 273.55 112.336H271.396C271.065 113.566 269.716 114.395 268.154 114.395C266.071 114.395 264.414 112.904 264.225 110.655H273.597C273.668 110.253 273.668 109.922 273.668 109.685C273.668 106.561 271.278 104.123 268.083 104.123C264.888 104.123 262.119 106.75 262.119 110.277C262.119 113.566 264.556 116.241 268.035 116.241ZM264.391 108.856C264.888 107.105 266.379 105.993 268.083 105.993C269.953 105.993 271.349 107.247 271.444 108.856H264.391ZM266.994 103.2H268.982L271.728 99.7682H269.337L266.994 103.2ZM284 112.525C284 114.702 282.154 116.241 279.527 116.241C276.9 116.241 275.054 114.868 274.865 112.478H276.947C277.066 113.732 278.06 114.513 279.527 114.513C280.995 114.513 281.894 113.779 281.894 112.738C281.894 111.488 280.534 111.182 279.031 110.843C277.175 110.424 275.101 109.956 275.101 107.602C275.101 105.425 276.924 104.123 279.29 104.123C281.705 104.123 283.527 105.354 283.764 107.578H281.634C281.468 106.561 280.569 105.803 279.267 105.803C278.178 105.803 277.137 106.277 277.137 107.389C277.137 108.498 278.404 108.763 279.85 109.065C281.768 109.466 284 109.933 284 112.525ZM90.9409 155.299C90.9409 157.221 89.4451 158.735 87.5328 158.735C85.6204 158.735 84.1152 157.221 84.1152 155.299C84.1152 153.368 85.6204 151.862 87.5328 151.862C89.4451 151.862 90.9409 153.368 90.9409 155.299ZM87.5328 152.913C86.2547 152.913 85.2607 153.964 85.2607 155.299C85.2607 156.634 86.2547 157.685 87.5328 157.685C88.8013 157.685 89.8048 156.634 89.8048 155.299C89.8048 153.964 88.8013 152.913 87.5328 152.913ZM72.4789 158.612H73.6433L74.0599 157.259H76.3888L76.8053 158.612H77.9982L75.7734 151.985H74.7226L72.4789 158.612ZM74.2871 156.227L75.2149 153.453L76.1142 156.227H74.2871ZM81.3302 158.612L83.5266 151.985H82.4095L80.819 157.012L79.1812 151.985H78.0073L80.2037 158.612H81.3302ZM95.4174 158.735C96.9794 158.735 98.2764 157.713 98.532 156.208H97.3202C97.112 157.069 96.3167 157.685 95.4174 157.685C94.1488 157.685 93.1926 156.672 93.1926 155.289C93.1926 153.907 94.1488 152.913 95.4174 152.913C96.3073 152.913 97.093 153.491 97.3108 154.295H98.5225C98.3048 152.875 97.0078 151.862 95.4174 151.862C93.505 151.862 92.0471 153.33 92.0471 155.289C92.0471 157.24 93.505 158.735 95.4174 158.735ZM100.268 158.612H99.1034L101.347 151.985H102.398L104.623 158.612H103.43L103.013 157.259H100.684L100.268 158.612ZM101.839 153.453L100.912 156.227H102.739L101.839 153.453ZM104.634 153.036H106.186V158.612H107.303V153.036H108.856V151.985H104.634V153.036ZM113.882 156.747C113.891 157.931 112.992 158.735 111.799 158.735C110.549 158.735 109.621 157.817 109.621 156.492H110.739C110.739 157.211 111.174 157.703 111.799 157.703C112.376 157.703 112.783 157.306 112.783 156.747C112.783 156.06 112.181 155.879 111.509 155.678C110.662 155.424 109.707 155.137 109.707 153.765C109.707 152.648 110.53 151.862 111.676 151.862C112.935 151.862 113.73 152.752 113.73 153.964H112.622C112.613 153.349 112.225 152.904 111.666 152.904C111.155 152.904 110.786 153.263 110.786 153.727C110.786 154.4 111.364 154.557 112.02 154.736C112.878 154.97 113.871 155.24 113.882 156.747ZM116.936 158.612H118.1L118.517 157.259H120.846L121.262 158.612H122.455L120.23 151.985H119.179L116.936 158.612ZM118.744 156.227L119.672 153.453L120.571 156.227H118.744ZM127.955 156.312C127.955 157.77 127.056 158.735 125.674 158.735C124.292 158.735 123.383 157.77 123.383 156.312V151.985H124.5V156.331C124.5 157.145 124.954 157.685 125.674 157.685C126.384 157.685 126.848 157.145 126.848 156.331V151.985H127.955V156.312ZM132.111 158.612H134.137C135.244 158.612 136.115 157.798 136.115 156.757C136.115 155.914 135.585 155.252 134.97 155.128C135.443 154.986 135.964 154.371 135.964 153.661C135.964 152.695 135.14 151.985 133.985 151.985H132.111V158.612ZM133.228 157.685V155.706H134.052C134.601 155.706 134.989 156.141 134.989 156.7C134.989 157.249 134.61 157.685 134.042 157.685H133.228ZM133.228 154.778V152.913H133.881C134.449 152.913 134.847 153.311 134.847 153.822C134.847 154.362 134.421 154.778 133.843 154.778H133.228ZM137.994 158.612H136.83L139.073 151.985H140.124L142.349 158.612H141.156L140.74 157.259H138.411L137.994 158.612ZM139.566 153.453L138.638 156.227H140.465L139.566 153.453ZM143.491 158.612H144.598V155.952H145.252C146.037 155.952 146.435 156.274 146.435 157.06V158.612H147.533V156.937C147.533 156.236 147.24 155.678 146.681 155.375C147.221 155.053 147.552 154.504 147.552 153.813C147.552 152.8 146.7 151.985 145.432 151.985H143.491V158.612ZM144.598 154.967V153.027H145.365C146.009 153.027 146.435 153.405 146.435 153.973C146.435 154.579 146.009 154.967 145.365 154.967H144.598ZM150.256 158.612H149.148V151.985H151.089C152.358 151.985 153.21 152.8 153.21 153.813C153.21 154.504 152.878 155.053 152.339 155.375C152.897 155.678 153.191 156.236 153.191 156.937V158.612H152.093V157.06C152.093 156.274 151.695 155.952 150.909 155.952H150.256V158.612ZM150.256 153.027V154.967H151.023C151.667 154.967 152.093 154.579 152.093 153.973C152.093 153.405 151.667 153.027 151.023 153.027H150.256ZM154.806 158.612H158.195V157.561H155.923V155.659H157.902V154.646H155.923V153.036H158.195V151.985H154.806V158.612ZM160.181 158.612H159.017L161.26 151.985H162.311L164.536 158.612H163.343L162.926 157.259H160.598L160.181 158.612ZM161.753 153.453L160.825 156.227H162.652L161.753 153.453ZM167.755 158.735C169.137 158.735 170.036 157.77 170.036 156.312V151.985H168.929V156.331C168.929 157.145 168.465 157.685 167.755 157.685C167.035 157.685 166.581 157.145 166.581 156.331V151.985H165.464V156.312C165.464 157.77 166.372 158.735 167.755 158.735ZM174.192 151.985H176.369C178.281 151.985 179.673 153.387 179.673 155.27C179.673 157.192 178.281 158.612 176.369 158.612H174.192V151.985ZM176.445 153.036H175.309V157.561H176.445C177.647 157.561 178.537 156.577 178.537 155.27C178.537 154.002 177.657 153.036 176.445 153.036ZM181.107 158.612H184.496V157.561H182.224V155.659H184.202V154.646H182.224V153.036H184.496V151.985H181.107V158.612ZM189.554 158.612H188.437V151.985H190.35C191.599 151.985 192.47 152.762 192.47 153.926C192.47 155.119 191.609 155.99 190.369 155.99H189.554V158.612ZM189.554 153.027V154.958H190.302C190.946 154.958 191.353 154.551 191.353 153.964C191.353 153.415 190.946 153.027 190.302 153.027H189.554ZM192.592 158.612H193.757L194.173 157.259H196.502L196.919 158.612H198.111L195.887 151.985H194.836L192.592 158.612ZM194.4 156.227L195.328 153.453L196.228 156.227H194.4ZM200.361 158.612H199.253V151.985H201.194C202.463 151.985 203.315 152.8 203.315 153.813C203.315 154.504 202.983 155.053 202.444 155.375C203.002 155.678 203.296 156.236 203.296 156.937V158.612H202.198V157.06C202.198 156.274 201.8 155.952 201.014 155.952H200.361V158.612ZM200.361 153.027V154.967H201.128C201.772 154.967 202.198 154.579 202.198 153.973C202.198 153.405 201.772 153.027 201.128 153.027H200.361ZM204.911 158.612H206.028V151.985H204.911V158.612ZM211.725 156.747C211.734 157.931 210.835 158.735 209.642 158.735C208.392 158.735 207.464 157.817 207.464 156.492H208.581C208.581 157.211 209.017 157.703 209.642 157.703C210.219 157.703 210.626 157.306 210.626 156.747C210.626 156.06 210.024 155.879 209.352 155.678C208.505 155.424 207.55 155.137 207.55 153.765C207.55 152.648 208.373 151.862 209.519 151.862C210.778 151.862 211.573 152.752 211.573 153.964H210.465C210.456 153.349 210.068 152.904 209.509 152.904C208.998 152.904 208.629 153.263 208.629 153.727C208.629 154.4 209.207 154.557 209.863 154.736C210.721 154.97 211.714 155.24 211.725 156.747Z" fill="#B8A271"/>
<line x1="29.582" y1="133.865" x2="254.416" y2="133.865" stroke="#B8A271" stroke-width="0.493056"/>
</svg>
