<svg width="162" height="92" viewBox="0 0 162 92" fill="none" xmlns="http://www.w3.org/2000/svg">
<path fill-rule="evenodd" clip-rule="evenodd" d="M36.0266 38.0336C34.2638 39.8882 31.9777 41.3755 29.1683 42.4956C26.3773 43.6157 23.5495 44.1758 20.685 44.1758C16.5902 44.1758 12.9821 43.276 9.86049 41.4765C6.73892 39.677 4.31511 37.1339 2.58907 33.8471C0.863023 30.5419 0 26.7501 0 22.4717C0 18.1933 0.863023 14.4107 2.58907 11.1238C4.31511 7.81866 6.73892 5.26631 9.86049 3.46682C12.9821 1.66733 16.5902 0.767578 20.685 0.767578C23.4761 0.767578 26.212 1.27254 28.8929 2.28246C31.5921 3.29238 33.7681 4.62364 35.4207 6.27623L34.8973 6.79955C33.4284 5.40403 31.5371 4.28394 29.2234 3.43928C26.9281 2.59462 24.6696 2.17229 22.4478 2.17229C19.216 2.17229 16.3607 3.01694 13.8818 4.70627C11.4213 6.39559 9.51161 8.77349 8.15281 11.84C6.81237 14.9065 6.14215 18.4504 6.14215 22.4717C6.14215 26.493 6.81237 30.0369 8.15281 33.1034C9.51161 36.1699 11.4305 38.5478 13.9094 40.2371C16.4066 41.9264 19.2711 42.7711 22.5029 42.7711C24.7981 42.7711 27.1577 42.2753 29.5815 41.2837C32.0053 40.2922 34.0068 38.9885 35.5859 37.3726L36.0266 38.0336ZM78.5005 43.6249L75.636 11.1789L60.1567 44.1758H59.3304L43.135 10.8484L40.0777 43.6249H38.8933L43.0799 0.767578H43.8786L62.0847 37.9785L79.4095 0.767578H80.1807L84.3673 43.6249H78.5005ZM113.601 38.254L118.641 43.6249H124.459H125.582H125.643L130.491 31.8364L140.241 8.09409L150.349 31.8364L155.362 43.6249H161.339L142.857 0.767578H142.114L124.802 42.7908L116.824 34.2602C118.329 31.9649 119.486 29.4126 120.294 26.6032C121.102 23.7754 121.506 20.764 121.506 17.569H120.707C120.67 20.6171 120.257 23.4908 119.468 26.19C118.697 28.8893 117.595 31.3131 116.163 33.4614L103.41 19.7724C101.409 17.6608 99.912 15.7603 98.9205 14.071C97.9289 12.3817 97.4331 10.6923 97.4331 9.00302C97.4331 6.96481 98.0758 5.30304 99.3612 4.01768C100.665 2.71397 102.391 2.06211 104.539 2.06211C106.082 2.06211 107.643 2.40181 109.222 3.08121C110.819 3.76061 112.242 4.66036 113.491 5.78045L113.904 5.25713C112.692 3.91669 111.113 2.83332 109.167 2.00702C107.22 1.18073 105.246 0.767578 103.245 0.767578C99.7743 0.767578 96.9924 1.6306 94.8991 3.35665C92.8242 5.08269 91.7868 7.37796 91.7868 10.2425C91.7868 11.8583 92.1724 13.4283 92.9436 14.9524C93.7148 16.4764 94.7981 18.0648 96.1937 19.7174C93.2924 22.0861 91.1624 24.2895 89.8036 26.3277C88.4448 28.3476 87.7654 30.5602 87.7654 32.9657C87.7654 35.114 88.2612 37.0329 89.2528 38.7222C90.2627 40.4115 91.6858 41.7428 93.522 42.716C95.3766 43.6892 97.5433 44.1758 100.022 44.1758C102.538 44.1758 104.952 43.6708 107.266 42.6609C109.58 41.6326 111.691 40.1636 113.601 38.254ZM108.285 40.4299C106.651 41.1277 104.989 41.4765 103.3 41.4765C101.188 41.4765 99.2785 40.9716 97.5708 39.9617C95.8632 38.9517 94.5135 37.5929 93.522 35.8853C92.5488 34.1776 92.0622 32.323 92.0622 30.3215C92.0622 28.4669 92.457 26.7776 93.2466 25.2535C94.0361 23.7295 95.2572 22.1779 96.9098 20.5987L97.7636 21.5077L112.83 37.4828C111.434 38.7498 109.919 39.7321 108.285 40.4299ZM9.09485 63.3732C8.71814 65.4451 6.91531 66.8443 4.73578 66.8443C2.04499 66.8443 0 64.7186 0 61.9471C0 59.2025 2.04499 57.1037 4.73578 57.1037C6.92877 57.1037 8.73159 58.4894 9.06794 60.4672H7.66873C7.31893 59.2025 6.12153 58.328 4.73578 58.328C2.81187 58.328 1.33194 59.8752 1.33194 61.9471C1.33194 64.0459 2.81187 65.62 4.73578 65.62C6.13499 65.62 7.35929 64.6917 7.66873 63.3732H9.09485ZM11.4221 66.6829H10.1978V57.2651H11.4086V60.8977C11.8929 60.3192 12.606 59.9559 13.4401 59.9559C14.9873 59.9559 16.0502 61.0726 16.0502 62.9023V66.6829H14.799V62.9292C14.799 61.8798 14.207 61.0995 13.1576 61.0995C12.162 61.0995 11.4221 61.826 11.4221 62.9965V66.6829ZM19.5806 66.8443C20.4147 66.8443 21.2085 66.4138 21.6525 65.7949V66.6829H22.8634V62.6063C22.8634 60.9919 21.8139 59.9559 20.0918 59.9559C18.5177 59.9559 17.3338 60.9246 17.28 62.27H18.5043C18.5581 61.5166 19.2577 60.9784 20.0784 60.9784C21.0471 60.9784 21.6256 61.5569 21.6256 62.4987V62.714H20.2937C18.289 62.714 17.1993 63.5885 17.1993 64.8801C17.1993 66.064 18.141 66.8443 19.5806 66.8443ZM18.4101 64.8531C18.4101 64.0594 19.0963 63.6423 20.3206 63.6423H21.6525V63.8441C21.6525 64.9742 20.8049 65.8756 19.6748 65.8756C18.8675 65.8756 18.4101 65.4586 18.4101 64.8531ZM28.8956 60.1174H30.12V66.6829H28.9091V65.9025C28.4248 66.4811 27.7117 66.8443 26.8776 66.8443C25.3304 66.8443 24.2675 65.7277 24.2675 63.8979V60.1174H25.5187V63.871C25.5187 64.9204 26.1107 65.7007 27.1601 65.7007C28.1557 65.7007 28.8956 64.9742 28.8956 63.8037V60.1174ZM33.5965 66.6829H34.8747L37.552 60.1174H36.2066L34.2692 65.1088L32.3319 60.1174H30.9461L33.5965 66.6829ZM44.1992 64.6244C43.8897 65.916 42.6654 66.8443 41.0644 66.8443C39.0867 66.8443 37.7009 65.324 37.7009 63.4539C37.7009 61.4493 39.275 59.9559 41.0913 59.9559C42.9076 59.9559 44.2664 61.3417 44.2664 63.1176V63.1176C44.2664 63.2522 44.2664 63.4405 44.2261 63.6692H38.8983C39.0059 64.9473 39.9477 65.7949 41.1317 65.7949C42.0196 65.7949 42.7865 65.324 42.9749 64.6244H44.1992ZM41.0913 61.0188C40.1226 61.0188 39.275 61.6511 38.9925 62.6467H43.0018C42.9479 61.7318 42.1542 61.0188 41.0913 61.0188ZM47.4223 66.8443C48.2565 66.8443 49.0502 66.4138 49.4942 65.7949V66.6829H50.7051V62.6063C50.7051 60.9919 49.6557 59.9559 47.9336 59.9559C46.3595 59.9559 45.1755 60.9246 45.1217 62.27H46.346C46.3998 61.5166 47.0994 60.9784 47.9201 60.9784C48.8888 60.9784 49.4673 61.5569 49.4673 62.4987V62.714H48.1354C46.1307 62.714 45.041 63.5885 45.041 64.8801C45.041 66.064 45.9827 66.8443 47.4223 66.8443ZM46.2518 64.8531C46.2518 64.0594 46.938 63.6423 48.1623 63.6423H49.4942V63.8441C49.4942 64.9742 48.6466 65.8756 47.5165 65.8756C46.7093 65.8756 46.2518 65.4586 46.2518 64.8531ZM56.7374 60.1174H57.9617V66.6829H56.7508V65.9025C56.2665 66.4811 55.5534 66.8443 54.7193 66.8443C53.1721 66.8443 52.1092 65.7277 52.1092 63.8979V60.1174H53.3604V63.871C53.3604 64.9204 53.9524 65.7007 55.0018 65.7007C55.9974 65.7007 56.7374 64.9742 56.7374 63.8037V60.1174ZM62.5206 66.6829H63.7852V61.3282C63.7852 60.1039 63.7314 59.0949 63.7314 59.0949C63.7314 59.0949 64.0274 60.0501 64.4445 61.2071L66.7854 66.6829H68.0232L70.3238 61.2475C70.7274 60.0905 71.0234 59.1218 71.0234 59.1218C71.0234 59.1218 70.9562 60.1308 70.9562 61.3551V66.6829H72.2343V57.2651H70.5122L67.4043 64.9742L64.2561 57.2651H62.5206V66.6829ZM78.3708 60.1174H79.5952V66.6829H78.3843V65.9025C77.9 66.4811 77.1869 66.8443 76.3528 66.8443C74.8056 66.8443 73.7427 65.7277 73.7427 63.8979V60.1174H74.9939V63.871C74.9939 64.9204 75.5859 65.7007 76.6353 65.7007C77.6309 65.7007 78.3708 64.9742 78.3708 63.8037V60.1174ZM82.4259 57.2651H81.1882V66.6829H82.4259V57.2651ZM90.4642 63.4001C90.4642 65.3509 88.9305 66.8443 87.02 66.8443C85.1096 66.8443 83.5893 65.3509 83.5893 63.4001C83.5893 61.4762 85.1096 59.9559 87.02 59.9559C88.9305 59.9559 90.4642 61.4762 90.4642 63.4001ZM87.02 61.0995C85.7554 61.0995 84.8001 62.1085 84.8001 63.4001C84.8001 64.7052 85.7554 65.7007 87.02 65.7007C88.2712 65.7007 89.2534 64.7052 89.2534 63.4001C89.2534 62.1085 88.2712 61.0995 87.02 61.0995ZM91.6208 66.6829H92.845V62.9965C92.845 61.826 93.585 61.0995 94.5806 61.0995C95.63 61.0995 96.222 61.8798 96.222 62.9292V66.6829H97.4732V62.9023C97.4732 61.0726 96.4103 59.9559 94.8631 59.9559C94.029 59.9559 93.3159 60.3192 92.8316 60.8977V60.1174H91.6208V66.6829ZM107.185 65.8084C106.391 66.4945 105.423 66.8443 104.4 66.8443C102.611 66.8443 101.454 65.8084 101.454 64.3823C101.454 63.0369 102.382 62.3238 103.405 61.7587C102.853 61.1533 102.261 60.4134 102.261 59.485C102.261 58.1127 103.364 57.1037 104.817 57.1037C106.243 57.1037 107.253 58.0186 107.253 59.3909C107.253 60.7093 106.23 61.382 105.154 61.9471L107.185 64.0997C107.427 63.6827 107.629 63.1714 107.791 62.5929L107.966 61.8933H109.257L109.055 62.6467C108.8 63.5616 108.436 64.3419 107.979 64.9608L109.593 66.6829H108.006L107.185 65.8084ZM104.104 62.4987C103.324 62.9427 102.719 63.427 102.719 64.2343C102.719 65.0819 103.391 65.768 104.508 65.768C105.248 65.768 105.907 65.5124 106.445 65.0146L104.104 62.4987ZM104.844 58.1665C104.064 58.1665 103.485 58.7316 103.485 59.4716C103.485 60.077 103.943 60.6286 104.468 61.2071C105.369 60.7497 106.109 60.2788 106.109 59.4447C106.109 58.7316 105.557 58.1665 104.844 58.1665ZM111.798 66.6829H113.156L113.843 64.5706H117.341L118.013 66.6829H119.426L116.237 57.2651H115L111.798 66.6829ZM114.112 63.3463L115.578 58.9738L117.018 63.3463H114.112ZM124.796 64.7321C124.796 65.9698 123.747 66.8443 122.254 66.8443C120.76 66.8443 119.711 66.064 119.603 64.7052H120.787C120.854 65.4182 121.419 65.8622 122.254 65.8622C123.088 65.8622 123.599 65.4451 123.599 64.8531C123.599 64.1429 122.826 63.9685 121.972 63.7758C120.917 63.5378 119.738 63.2719 119.738 61.9336C119.738 60.6959 120.774 59.9559 122.119 59.9559C123.491 59.9559 124.527 60.6555 124.662 61.9202H123.451C123.357 61.3417 122.845 60.9111 122.106 60.9111C121.487 60.9111 120.895 61.1802 120.895 61.8126C120.895 62.4427 121.615 62.5934 122.437 62.7653C123.527 62.9934 124.796 63.2589 124.796 64.7321ZM128.146 66.8443C129.64 66.8443 130.689 65.9698 130.689 64.7321C130.689 63.2589 129.42 62.9934 128.33 62.7653C127.508 62.5934 126.788 62.4427 126.788 61.8126C126.788 61.1802 127.38 60.9111 127.998 60.9111C128.738 60.9111 129.25 61.3417 129.344 61.9202H130.555C130.42 60.6555 129.384 59.9559 128.012 59.9559C126.667 59.9559 125.631 60.6959 125.631 61.9336C125.631 63.2719 126.81 63.5378 127.865 63.7758C128.719 63.9685 129.492 64.1429 129.492 64.8531C129.492 65.4451 128.981 65.8622 128.146 65.8622C127.312 65.8622 126.747 65.4182 126.68 64.7052H125.496C125.604 66.064 126.653 66.8443 128.146 66.8443ZM138.291 63.4001C138.291 65.3509 136.757 66.8443 134.847 66.8443C132.936 66.8443 131.416 65.3509 131.416 63.4001C131.416 61.4762 132.936 59.9559 134.847 59.9559C136.757 59.9559 138.291 61.4762 138.291 63.4001ZM134.847 61.0995C133.582 61.0995 132.627 62.1085 132.627 63.4001C132.627 64.7052 133.582 65.7007 134.847 65.7007C136.098 65.7007 137.08 64.7052 137.08 63.4001C137.08 62.1085 136.098 61.0995 134.847 61.0995ZM142.434 66.8443C143.981 66.8443 145.327 65.8487 145.515 64.3823H144.264C144.089 65.1626 143.295 65.7007 142.421 65.7007C141.183 65.7007 140.228 64.7052 140.228 63.4136C140.228 62.0951 141.183 61.0995 142.421 61.0995C143.295 61.0995 144.075 61.6646 144.264 62.3776H145.515C145.3 60.9919 143.968 59.9559 142.434 59.9559C140.537 59.9559 139.017 61.4493 139.017 63.4136C139.017 65.3778 140.537 66.8443 142.434 66.8443ZM147.839 66.6829H146.602V60.1174H147.839V66.6829ZM147.893 58.8123H146.548V57.2651H147.893V58.8123ZM152.366 66.8443C153.967 66.8443 155.191 65.916 155.501 64.6244H154.277C154.088 65.324 153.321 65.7949 152.433 65.7949C151.249 65.7949 150.308 64.9473 150.2 63.6692H155.528C155.568 63.4405 155.568 63.2521 155.568 63.1176C155.568 61.3417 154.209 59.9559 152.393 59.9559C150.577 59.9559 149.003 61.4493 149.003 63.4539C149.003 65.324 150.388 66.8443 152.366 66.8443ZM150.294 62.6467C150.577 61.6511 151.424 61.0188 152.393 61.0188C153.456 61.0188 154.25 61.7318 154.303 62.6467H150.294ZM151.774 59.4312H152.904L154.465 57.4804H153.106L151.774 59.4312ZM161.441 64.7321C161.441 65.9698 160.392 66.8443 158.899 66.8443C157.405 66.8443 156.356 66.064 156.248 64.7052H157.432C157.499 65.4182 158.064 65.8622 158.899 65.8622C159.733 65.8622 160.244 65.4451 160.244 64.8531C160.244 64.1429 159.471 63.9685 158.617 63.7758C157.562 63.5378 156.383 63.2719 156.383 61.9336C156.383 60.6959 157.419 59.9559 158.764 59.9559C160.136 59.9559 161.172 60.6555 161.307 61.9202H160.096C160.002 61.3417 159.491 60.9111 158.751 60.9111C158.132 60.9111 157.54 61.1802 157.54 61.8126C157.54 62.4427 158.26 62.5934 159.082 62.7653C160.172 62.9934 161.441 63.2589 161.441 64.7321ZM51.6956 89.0476C51.6956 90.1401 50.8453 91.0012 49.7582 91.0012C48.6712 91.0012 47.8155 90.1401 47.8155 89.0476C47.8155 87.9498 48.6712 87.0941 49.7582 87.0941C50.8453 87.0941 51.6956 87.9498 51.6956 89.0476ZM49.7582 87.6915C49.0317 87.6915 48.4667 88.2888 48.4667 89.0476C48.4667 89.8064 49.0317 90.4038 49.7582 90.4038C50.4794 90.4038 51.0498 89.8064 51.0498 89.0476C51.0498 88.2888 50.4794 87.6915 49.7582 87.6915ZM41.2008 90.9312H41.8627L42.0995 90.1616H43.4234L43.6602 90.9312H44.3382L43.0736 87.1641H42.4762L41.2008 90.9312ZM42.2287 89.575L42.7561 87.9982L43.2673 89.575H42.2287ZM46.2324 90.9312L47.4809 87.1641H46.8459L45.9418 90.0217L45.0108 87.1641H44.3434L45.592 90.9312H46.2324ZM54.2403 91.0012C55.1282 91.0012 55.8655 90.4199 56.0108 89.5643H55.322C55.2036 90.054 54.7515 90.4038 54.2403 90.4038C53.5191 90.4038 52.9756 89.828 52.9756 89.0423C52.9756 88.2566 53.5191 87.6915 54.2403 87.6915C54.7461 87.6915 55.1928 88.0198 55.3166 88.4772H56.0054C55.8817 87.67 55.1444 87.0941 54.2403 87.0941C53.1532 87.0941 52.3244 87.9283 52.3244 89.0423C52.3244 90.1509 53.1532 91.0012 54.2403 91.0012ZM56.9975 90.9312H56.3356L57.611 87.1641H58.2084L59.473 90.9312H58.795L58.5582 90.1616H57.2343L56.9975 90.9312ZM57.8909 87.9982L57.3635 89.575H58.4021L57.8909 87.9982ZM59.4794 87.7615H60.362V90.9312H60.997V87.7615H61.8796V87.1641H59.4794V87.7615ZM64.7363 89.871C64.7417 90.5437 64.2305 91.0012 63.5524 91.0012C62.842 91.0012 62.3146 90.4791 62.3146 89.7257H62.9497C62.9497 90.1347 63.1972 90.4146 63.5524 90.4146C63.8807 90.4146 64.1121 90.1885 64.1121 89.871C64.1121 89.4803 63.7694 89.3775 63.3874 89.2629C62.9064 89.1187 62.3631 88.9557 62.3631 88.1758C62.3631 87.5408 62.8313 87.0941 63.4824 87.0941C64.1982 87.0941 64.6502 87.6 64.6502 88.2888H64.0206C64.0152 87.939 63.7946 87.6861 63.4771 87.6861C63.1865 87.6861 62.9766 87.8906 62.9766 88.1543C62.9766 88.5368 63.305 88.6261 63.6781 88.7277C64.166 88.8605 64.7302 89.0141 64.7363 89.871ZM66.4725 90.9312H67.1344L67.3712 90.1616H68.6951L68.9319 90.9312H69.6099L68.3453 87.1641H67.7479L66.4725 90.9312ZM67.5004 89.575L68.0278 87.9982L68.539 89.575H67.5004ZM72.7367 89.6235C72.7367 90.4522 72.2254 91.0012 71.4397 91.0012C70.654 91.0012 70.1374 90.4522 70.1374 89.6235V87.1641H70.7724V89.6342C70.7724 90.097 71.0307 90.4038 71.4397 90.4038C71.8433 90.4038 72.107 90.097 72.107 89.6342V87.1641H72.7367V89.6235ZM75.0988 90.9312H76.2505C76.8801 90.9312 77.3753 90.4684 77.3753 89.8764C77.3753 89.3974 77.0739 89.0207 76.7241 88.9508C76.9932 88.8701 77.2891 88.5202 77.2891 88.1166C77.2891 87.5677 76.8209 87.1641 76.1644 87.1641H75.0988V90.9312ZM75.7339 90.4038V89.2791H76.2021C76.5142 89.2791 76.7348 89.5266 76.7348 89.8441C76.7348 90.1562 76.5196 90.4038 76.1967 90.4038H75.7339ZM75.7339 88.7517V87.6915H76.1052C76.4281 87.6915 76.6541 87.9175 76.6541 88.2081C76.6541 88.5149 76.4119 88.7517 76.0837 88.7517H75.7339ZM78.4433 90.9312H77.7813L79.0568 87.1641H79.6541L80.9188 90.9312H80.2407L80.0039 90.1616H78.6801L78.4433 90.9312ZM79.3366 87.9982L78.8092 89.575H79.8479L79.3366 87.9982ZM81.5679 90.9312H82.1975V89.419H82.5688C83.0155 89.419 83.2415 89.6019 83.2415 90.0486V90.9312H83.8658V89.9787C83.8658 89.5804 83.699 89.2629 83.3815 89.0907C83.6882 88.9077 83.8766 88.5956 83.8766 88.2027C83.8766 87.6269 83.3922 87.1641 82.6711 87.1641H81.5679V90.9312ZM82.1975 88.8593V87.7561H82.6334C82.9994 87.7561 83.2415 87.9713 83.2415 88.2942C83.2415 88.6386 82.9994 88.8593 82.6334 88.8593H82.1975ZM85.4136 90.9312H84.784V87.1641H85.8872C86.6083 87.1641 87.0927 87.6269 87.0927 88.2027C87.0927 88.5956 86.9043 88.9077 86.5976 89.0907C86.9151 89.2629 87.0819 89.5804 87.0819 89.9787V90.9312H86.4577V90.0486C86.4577 89.6019 86.2316 89.419 85.785 89.419H85.4136V90.9312ZM85.4136 87.7561V88.8593H85.8495C86.2155 88.8593 86.4577 88.6386 86.4577 88.2942C86.4577 87.9713 86.2155 87.7561 85.8495 87.7561H85.4136ZM88.0001 87.1641V90.9312H89.9267V90.3338H88.6351V89.2521H89.7599V88.6763H88.6351V87.7615H89.9267V87.1641H88.0001ZM91.0555 90.9312H90.3936L91.669 87.1641H92.2663L93.531 90.9312H92.8529L92.6161 90.1616H91.2923L91.0555 90.9312ZM91.9488 87.9982L91.4214 89.575H92.4601L91.9488 87.9982ZM95.3608 91.0012C96.1465 91.0012 96.6577 90.4522 96.6577 89.6235V87.1641H96.0281V89.6342C96.0281 90.097 95.7644 90.4038 95.3608 90.4038C94.9518 90.4038 94.6935 90.097 94.6935 89.6342V87.1641H94.0584V89.6235C94.0584 90.4522 94.5751 91.0012 95.3608 91.0012ZM99.0199 87.1641H100.258C101.345 87.1641 102.136 87.9606 102.136 89.0315C102.136 90.124 101.345 90.9312 100.258 90.9312H99.0199V87.1641ZM99.6549 90.3338H100.301C100.984 90.3338 101.49 89.7742 101.49 89.0315C101.49 88.3104 100.99 87.7615 100.301 87.7615H99.6549V90.3338ZM102.951 87.1641V90.9312H104.877V90.3338H103.586V89.2521H104.711V88.6763H103.586V87.7615H104.877V87.1641H102.951ZM107.753 90.9312H107.118V87.1641H108.205C108.915 87.1641 109.41 87.6054 109.41 88.2673C109.41 88.9454 108.921 89.4405 108.216 89.4405H107.753V90.9312ZM107.753 87.7561V88.8539H108.178C108.544 88.8539 108.775 88.6225 108.775 88.2888C108.775 87.9767 108.544 87.7561 108.178 87.7561H107.753ZM109.48 90.9312H110.142L110.379 90.1616H111.702L111.939 90.9312H112.617L111.353 87.1641H110.755L109.48 90.9312ZM110.508 89.575L111.035 87.9982L111.546 89.575H110.508ZM113.896 90.9312H113.266V87.1641H114.37C115.091 87.1641 115.575 87.6269 115.575 88.2027C115.575 88.5956 115.387 88.9077 115.08 89.0907C115.397 89.2629 115.564 89.5804 115.564 89.9787V90.9312H114.94V90.0486C114.94 89.6019 114.714 89.419 114.267 89.419H113.896V90.9312ZM113.896 87.7561V88.8593H114.332C114.698 88.8593 114.94 88.6386 114.94 88.2942C114.94 87.9713 114.698 87.7561 114.332 87.7561H113.896ZM116.482 87.1641V90.9312H117.117V87.1641H116.482ZM120.356 89.871C120.361 90.5437 119.85 91.0012 119.172 91.0012C118.461 91.0012 117.934 90.4791 117.934 89.7257H118.569C118.569 90.1347 118.817 90.4146 119.172 90.4146C119.5 90.4146 119.731 90.1885 119.731 89.871C119.731 89.4803 119.389 89.3775 119.007 89.2629C118.526 89.1187 117.982 88.9557 117.982 88.1758C117.982 87.5408 118.451 87.0941 119.102 87.0941C119.818 87.0941 120.27 87.6 120.27 88.2888H119.64C119.635 87.939 119.414 87.6861 119.096 87.6861C118.806 87.6861 118.596 87.8906 118.596 88.1543C118.596 88.5368 118.924 88.6261 119.297 88.7277C119.785 88.8605 120.35 89.0141 120.356 89.871ZM16.8172 77.0038L144.625 77.0038V76.7236L16.8172 76.7236V77.0038Z" fill="#0E153F"/>
</svg>
