<svg width="167" height="84" viewBox="0 0 167 84" fill="none" xmlns="http://www.w3.org/2000/svg">
<path fill-rule="evenodd" clip-rule="evenodd" d="M10.1627 64.2102C9.77493 66.3432 7.91896 67.7836 5.67518 67.7836C2.90508 67.7836 0.799805 65.5952 0.799805 62.742C0.799805 59.9165 2.90508 57.7559 5.67518 57.7559C7.93281 57.7559 9.78878 59.1825 10.135 61.2185H8.69459C8.33447 59.9165 7.10178 59.0163 5.67518 59.0163C3.69456 59.0163 2.171 60.6091 2.171 62.742C2.171 64.9027 3.69456 66.5232 5.67518 66.5232C7.11563 66.5232 8.37603 65.5675 8.69459 64.2102H10.1627ZM12.5586 67.6174H11.2982V57.9221H12.5447V61.6617C13.0433 61.0661 13.7774 60.6922 14.6361 60.6922C16.2289 60.6922 17.3231 61.8418 17.3231 63.7254V67.6174H16.035V63.7531C16.035 62.6728 15.4256 61.8695 14.3453 61.8695C13.3203 61.8695 12.5586 62.6174 12.5586 63.8224V67.6174ZM20.9576 67.7836C21.8163 67.7836 22.6335 67.3404 23.0906 66.7033V67.6174H24.3371V63.4207C24.3371 61.7587 23.2568 60.6922 21.4839 60.6922C19.8634 60.6922 18.6445 61.6894 18.5891 63.0744H19.8495C19.9049 62.2988 20.6252 61.7448 21.47 61.7448C22.4673 61.7448 23.0629 62.3404 23.0629 63.3099V63.5315H21.6917C19.6279 63.5315 18.506 64.4318 18.506 65.7614C18.506 66.9803 19.4756 67.7836 20.9576 67.7836ZM19.7526 65.7337C19.7526 64.9166 20.459 64.4872 21.7194 64.4872H23.0906V64.695C23.0906 65.8584 22.218 66.7864 21.0545 66.7864C20.2235 66.7864 19.7526 66.357 19.7526 65.7337ZM30.5472 60.8584H31.8076V67.6174H30.5611V66.8141C30.0624 67.4097 29.3284 67.7836 28.4696 67.7836C26.8768 67.7836 25.7826 66.634 25.7826 64.7504V60.8584H27.0707V64.7227C27.0707 65.803 27.6802 66.6063 28.7605 66.6063C29.7854 66.6063 30.5472 65.8584 30.5472 64.6534V60.8584ZM35.3867 67.6174H36.7025L39.4587 60.8584H38.0737L36.0792 65.9969L34.0847 60.8584H32.6581L35.3867 67.6174ZM46.3018 65.4983C45.9833 66.8279 44.7229 67.7836 43.0747 67.7836C41.0386 67.7836 39.612 66.2185 39.612 64.2933C39.612 62.2296 41.2325 60.6922 43.1024 60.6922C44.9722 60.6922 46.3711 62.1188 46.3711 63.947V63.9471C46.3711 64.0856 46.3711 64.2795 46.3295 64.5149H40.8447C40.9555 65.8307 41.9251 66.7033 43.1439 66.7033C44.058 66.7033 44.8475 66.2185 45.0414 65.4983H46.3018ZM43.1024 61.7864C42.1051 61.7864 41.2325 62.4373 40.9417 63.4623H45.0691C45.0137 62.5204 44.1965 61.7864 43.1024 61.7864ZM49.62 67.7836C50.4787 67.7836 51.2959 67.3404 51.753 66.7033V67.6174H52.9995V63.4207C52.9995 61.7587 51.9192 60.6922 50.1463 60.6922C48.5258 60.6922 47.307 61.6894 47.2516 63.0744H48.512C48.5674 62.2988 49.2876 61.7448 50.1325 61.7448C51.1297 61.7448 51.7253 62.3404 51.7253 63.3099V63.5315H50.3541C48.2903 63.5315 47.1685 64.4318 47.1685 65.7614C47.1685 66.9803 48.138 67.7836 49.62 67.7836ZM48.415 65.7337C48.415 64.9166 49.1214 64.4872 50.3818 64.4872H51.753V64.695C51.753 65.8584 50.8804 66.7864 49.7169 66.7864C48.8859 66.7864 48.415 66.357 48.415 65.7337ZM59.2096 60.8584H60.47V67.6174H59.2235V66.8141C58.7248 67.4097 57.9908 67.7836 57.132 67.7836C55.5392 67.7836 54.445 66.634 54.445 64.7504V60.8584H55.7331V64.7227C55.7331 65.803 56.3426 66.6063 57.4229 66.6063C58.4478 66.6063 59.2096 65.8584 59.2096 64.6534V60.8584ZM65.1633 67.6174H66.4652V62.1049C66.4652 60.8445 66.4098 59.8057 66.4098 59.8057C66.4098 59.8057 66.7145 60.7891 67.1439 61.9803L69.5539 67.6174H70.8281L73.1966 62.0218C73.6121 60.8307 73.9168 59.8334 73.9168 59.8334C73.9168 59.8334 73.8475 60.8722 73.8475 62.1326V67.6174H75.1633V57.9221H73.3905L70.191 65.8584L66.95 57.9221H65.1633V67.6174ZM81.4808 60.8584H82.7412V67.6174H81.4946V66.8141C80.996 67.4097 80.2619 67.7836 79.4032 67.7836C77.8104 67.7836 76.7162 66.634 76.7162 64.7504V60.8584H78.0043V64.7227C78.0043 65.803 78.6137 66.6063 79.6941 66.6063C80.719 66.6063 81.4808 65.8584 81.4808 64.6534V60.8584ZM85.6554 57.9221H84.3812V67.6174H85.6554V57.9221ZM93.9306 64.2379C93.9306 66.2462 92.3517 67.7836 90.3849 67.7836C88.4181 67.7836 86.853 66.2462 86.853 64.2379C86.853 62.2573 88.4181 60.6922 90.3849 60.6922C92.3517 60.6922 93.9306 62.2573 93.9306 64.2379ZM90.3849 61.8695C89.083 61.8695 88.0996 62.9082 88.0996 64.2379C88.0996 65.5814 89.083 66.6063 90.3849 66.6063C91.673 66.6063 92.6841 65.5814 92.6841 64.2379C92.6841 62.9082 91.673 61.8695 90.3849 61.8695ZM95.1213 67.6174H96.3816V63.8224C96.3816 62.6174 97.1434 61.8695 98.1684 61.8695C99.2487 61.8695 99.8581 62.6728 99.8581 63.7531V67.6174H101.146V63.7254C101.146 61.8418 100.052 60.6922 98.4592 60.6922C97.6005 60.6922 96.8664 61.0661 96.3678 61.6617V60.8584H95.1213V67.6174ZM111.145 66.7171C110.327 67.4235 109.33 67.7836 108.277 67.7836C106.435 67.7836 105.244 66.7171 105.244 65.249C105.244 63.8639 106.2 63.1299 107.253 62.5481C106.685 61.9249 106.075 61.1631 106.075 60.2074C106.075 58.7946 107.211 57.7559 108.707 57.7559C110.175 57.7559 111.214 58.6977 111.214 60.1104C111.214 61.4678 110.161 62.1603 109.053 62.742L111.145 64.9581C111.394 64.5288 111.602 64.0024 111.768 63.4069L111.948 62.6866H113.278L113.07 63.4623C112.807 64.4041 112.433 65.2074 111.962 65.8445L113.624 67.6174H111.989L111.145 66.7171ZM107.973 63.3099C107.169 63.767 106.546 64.2656 106.546 65.0966C106.546 65.9692 107.239 66.6756 108.388 66.6756C109.15 66.6756 109.829 66.4124 110.383 65.9L107.973 63.3099ZM108.735 58.85C107.931 58.85 107.336 59.4318 107.336 60.1935C107.336 60.8168 107.807 61.3847 108.347 61.9803C109.275 61.5093 110.036 61.0246 110.036 60.1658C110.036 59.4318 109.469 58.85 108.735 58.85ZM115.893 67.6174H117.292L117.998 65.4429H121.599L122.292 67.6174H123.746L120.463 57.9221H119.189L115.893 67.6174ZM118.275 64.1825L119.785 59.6811L121.267 64.1825H118.275ZM129.275 65.6091C129.275 66.8833 128.194 67.7836 126.657 67.7836C125.12 67.7836 124.039 66.9803 123.928 65.5814H125.147C125.217 66.3155 125.798 66.7725 126.657 66.7725C127.516 66.7725 128.042 66.3432 128.042 65.7337C128.042 65.0025 127.246 64.823 126.367 64.6246C125.281 64.3796 124.067 64.1058 124.067 62.7282C124.067 61.4539 125.133 60.6922 126.518 60.6922C127.931 60.6922 128.998 61.4124 129.136 62.7143H127.89C127.793 62.1188 127.266 61.6755 126.505 61.6755C125.868 61.6755 125.258 61.9526 125.258 62.6035C125.258 63.2523 126 63.4074 126.846 63.5844C127.968 63.8192 129.275 64.0925 129.275 65.6091ZM132.724 67.7836C134.261 67.7836 135.341 66.8833 135.341 65.6091C135.341 64.0925 134.035 63.8192 132.912 63.5844C132.066 63.4074 131.325 63.2523 131.325 62.6035C131.325 61.9526 131.934 61.6755 132.571 61.6755C133.333 61.6755 133.859 62.1188 133.956 62.7143H135.203C135.064 61.4124 133.998 60.6922 132.585 60.6922C131.2 60.6922 130.134 61.4539 130.134 62.7282C130.134 64.1058 131.347 64.3796 132.434 64.6246C133.313 64.823 134.109 65.0025 134.109 65.7337C134.109 66.3432 133.582 66.7725 132.724 66.7725C131.865 66.7725 131.283 66.3155 131.214 65.5814H129.995C130.106 66.9803 131.186 67.7836 132.724 67.7836ZM143.167 64.2379C143.167 66.2462 141.588 67.7836 139.621 67.7836C137.654 67.7836 136.089 66.2462 136.089 64.2379C136.089 62.2573 137.654 60.6922 139.621 60.6922C141.588 60.6922 143.167 62.2573 143.167 64.2379ZM139.621 61.8695C138.319 61.8695 137.336 62.9082 137.336 64.2379C137.336 65.5814 138.319 66.6063 139.621 66.6063C140.909 66.6063 141.92 65.5814 141.92 64.2379C141.92 62.9082 140.909 61.8695 139.621 61.8695ZM147.432 67.7836C149.025 67.7836 150.41 66.7587 150.604 65.249H149.316C149.136 66.0523 148.319 66.6063 147.419 66.6063C146.144 66.6063 145.161 65.5814 145.161 64.2517C145.161 62.8944 146.144 61.8695 147.419 61.8695C148.319 61.8695 149.122 62.4512 149.316 63.1853H150.604C150.383 61.7587 149.011 60.6922 147.432 60.6922C145.479 60.6922 143.914 62.2296 143.914 64.2517C143.914 66.2739 145.479 67.7836 147.432 67.7836ZM152.997 67.6174H151.723V60.8584H152.997V67.6174ZM153.052 59.5149H151.667V57.9221H153.052V59.5149ZM157.657 67.7836C159.305 67.7836 160.566 66.8279 160.884 65.4983H159.624C159.43 66.2185 158.641 66.7033 157.726 66.7033C156.508 66.7033 155.538 65.8307 155.427 64.5149H160.912C160.954 64.2794 160.954 64.0855 160.954 63.947C160.954 62.1188 159.555 60.6922 157.685 60.6922C155.815 60.6922 154.195 62.2296 154.195 64.2933C154.195 66.2185 155.621 67.7836 157.657 67.7836ZM155.524 63.4623C155.815 62.4373 156.688 61.7864 157.685 61.7864C158.779 61.7864 159.596 62.5204 159.652 63.4623H155.524ZM157.048 60.152H158.211L159.818 58.1437H158.419L157.048 60.152ZM167 65.6091C167 66.8833 165.92 67.7836 164.382 67.7836C162.845 67.7836 161.765 66.9803 161.654 65.5814H162.873C162.942 66.3155 163.524 66.7725 164.382 66.7725C165.241 66.7725 165.767 66.3432 165.767 65.7337C165.767 65.0025 164.972 64.823 164.092 64.6246C163.006 64.3796 161.792 64.1058 161.792 62.7282C161.792 61.4539 162.859 60.6922 164.244 60.6922C165.657 60.6922 166.723 61.4124 166.862 62.7143H165.615C165.518 62.1188 164.992 61.6755 164.23 61.6755C163.593 61.6755 162.983 61.9526 162.983 62.6035C162.983 63.2523 163.725 63.4074 164.571 63.5844C165.694 63.8192 167 64.0925 167 65.6091ZM54.0092 81.8363C54.0092 82.9609 53.1339 83.8474 52.0148 83.8474C50.8957 83.8474 50.0148 82.9609 50.0148 81.8363C50.0148 80.7061 50.8957 79.8252 52.0148 79.8252C53.1339 79.8252 54.0092 80.7061 54.0092 81.8363ZM52.0148 80.4402C51.2668 80.4402 50.6851 81.0551 50.6851 81.8363C50.6851 82.6175 51.2668 83.2324 52.0148 83.2324C52.7572 83.2324 53.3444 82.6175 53.3444 81.8363C53.3444 81.0551 52.7572 80.4402 52.0148 80.4402ZM43.2051 83.7754H43.8865L44.1303 82.9831H45.4932L45.7369 83.7754H46.435L45.1331 79.8972H44.5181L43.2051 83.7754ZM44.2633 82.3792L44.8062 80.7559L45.3325 82.3792H44.2633ZM48.385 83.7754L49.6703 79.8972H49.0166L48.0858 82.8391L47.1274 79.8972H46.4404L47.7257 83.7754H48.385ZM56.6289 83.8474C57.5431 83.8474 58.3021 83.249 58.4517 82.3681H57.7425C57.6206 82.8723 57.1553 83.2324 56.6289 83.2324C55.8866 83.2324 55.327 82.6396 55.327 81.8307C55.327 81.0219 55.8866 80.4402 56.6289 80.4402C57.1497 80.4402 57.6096 80.7781 57.737 81.249H58.4461C58.3187 80.418 57.5597 79.8252 56.6289 79.8252C55.5098 79.8252 54.6566 80.6839 54.6566 81.8307C54.6566 82.972 55.5098 83.8474 56.6289 83.8474ZM59.4675 83.7754H58.786L60.099 79.8972H60.714L62.016 83.7754H61.3179L61.0741 82.9831H59.7112L59.4675 83.7754ZM60.3871 80.7559L59.8442 82.3792H60.9135L60.3871 80.7559ZM62.0225 80.5122H62.9311V83.7754H63.5848V80.5122H64.4934V79.8972H62.0225V80.5122ZM67.4344 82.6839C67.4399 83.3765 66.9136 83.8474 66.2156 83.8474C65.4843 83.8474 64.9413 83.31 64.9413 82.5344H65.5951C65.5951 82.9554 65.8499 83.2435 66.2156 83.2435C66.5535 83.2435 66.7917 83.0108 66.7917 82.6839C66.7917 82.2817 66.4389 82.1759 66.0457 82.0579C65.5505 81.9094 64.9912 81.7416 64.9912 80.9388C64.9912 80.285 65.4732 79.8252 66.1435 79.8252C66.8804 79.8252 67.3458 80.346 67.3458 81.0551H66.6976C66.692 80.695 66.4649 80.4346 66.138 80.4346C65.8388 80.4346 65.6228 80.6451 65.6228 80.9166C65.6228 81.3103 65.9609 81.4024 66.3449 81.5069C66.8472 81.6436 67.4281 81.8018 67.4344 82.6839ZM69.2217 83.7754H69.9032L70.1469 82.9831H71.5098L71.7536 83.7754H72.4517L71.1497 79.8972H70.5347L69.2217 83.7754ZM70.2799 82.3792L70.8228 80.7559L71.3492 82.3792H70.2799ZM75.6706 82.4291C75.6706 83.2823 75.1442 83.8474 74.3354 83.8474C73.5265 83.8474 72.9946 83.2823 72.9946 82.4291V79.8972H73.6484V82.4402C73.6484 82.9166 73.9143 83.2324 74.3354 83.2324C74.7509 83.2324 75.0224 82.9166 75.0224 82.4402V79.8972H75.6706V82.4291ZM78.1024 83.7754H79.288C79.9362 83.7754 80.4459 83.2989 80.4459 82.6895C80.4459 82.1964 80.1356 81.8086 79.7755 81.7366C80.0525 81.6535 80.3572 81.2933 80.3572 80.8778C80.3572 80.3127 79.8752 79.8972 79.1993 79.8972H78.1024V83.7754ZM78.7561 83.2324V82.0745H79.2381C79.5594 82.0745 79.7866 82.3294 79.7866 82.6562C79.7866 82.9776 79.565 83.2324 79.2326 83.2324H78.7561ZM78.7561 81.5316V80.4402H79.1384C79.4708 80.4402 79.7035 80.6728 79.7035 80.972C79.7035 81.2878 79.4542 81.5316 79.1162 81.5316H78.7561ZM81.5454 83.7754H80.8639L82.177 79.8972H82.7919L84.0939 83.7754H83.3958L83.152 82.9831H81.7891L81.5454 83.7754ZM82.465 80.7559L81.9221 82.3792H82.9914L82.465 80.7559ZM84.7621 83.7754H85.4103V82.2186H85.7925C86.2524 82.2186 86.4851 82.4069 86.4851 82.8668V83.7754H87.1277V82.7947C87.1277 82.3848 86.956 82.0579 86.6291 81.8806C86.9449 81.6922 87.1388 81.3709 87.1388 80.9665C87.1388 80.3737 86.6402 79.8972 85.8978 79.8972H84.7621V83.7754ZM85.4103 81.6424V80.5066H85.859C86.2358 80.5066 86.4851 80.7282 86.4851 81.0607C86.4851 81.4152 86.2358 81.6424 85.859 81.6424H85.4103ZM88.7212 83.7754H88.073V79.8972H89.2087C89.9511 79.8972 90.4497 80.3737 90.4497 80.9665C90.4497 81.3709 90.2558 81.6922 89.94 81.8806C90.2669 82.0579 90.4386 82.3848 90.4386 82.7947V83.7754H89.796V82.8668C89.796 82.4069 89.5633 82.2186 89.1035 82.2186H88.7212V83.7754ZM88.7212 80.5066V81.6424H89.1699C89.5467 81.6424 89.796 81.4152 89.796 81.0607C89.796 80.7282 89.5467 80.5066 89.1699 80.5066H88.7212ZM91.3839 83.7754H93.3673V83.1604H92.0376V82.0468H93.1955V81.454H92.0376V80.5122H93.3673V79.8972H91.3839V83.7754ZM94.5294 83.7754H93.8479L95.1609 79.8972H95.7759L97.0778 83.7754H96.3798L96.136 82.9831H94.7731L94.5294 83.7754ZM95.449 80.7559L94.9061 82.3792H95.9753L95.449 80.7559ZM98.9615 83.8474C99.7704 83.8474 100.297 83.2823 100.297 82.4291V79.8972H99.6485V82.4402C99.6485 82.9166 99.3771 83.2324 98.9615 83.2324C98.5405 83.2324 98.2746 82.9166 98.2746 82.4402V79.8972H97.6208V82.4291C97.6208 83.2823 98.1527 83.8474 98.9615 83.8474ZM102.729 79.8972H104.003C105.122 79.8972 105.936 80.7172 105.936 81.8197C105.936 82.9443 105.122 83.7754 104.003 83.7754H102.729V79.8972ZM104.047 80.5122H103.382V83.1604H104.047C104.751 83.1604 105.271 82.5842 105.271 81.8197C105.271 81.0773 104.756 80.5122 104.047 80.5122ZM106.775 83.7754H108.759V83.1604H107.429V82.0468H108.587V81.454H107.429V80.5122H108.759V79.8972H106.775V83.7754ZM111.719 83.7754H111.065V79.8972H112.184C112.916 79.8972 113.425 80.3515 113.425 81.033C113.425 81.731 112.921 82.2407 112.195 82.2407H111.719V83.7754ZM111.719 80.5066V81.6368H112.157C112.533 81.6368 112.772 81.3986 112.772 81.0551C112.772 80.7338 112.533 80.5066 112.157 80.5066H111.719ZM113.497 83.7754H114.178L114.422 82.9831H115.785L116.029 83.7754H116.727L115.425 79.8972H114.81L113.497 83.7754ZM114.555 82.3792L115.098 80.7559L115.624 82.3792H114.555ZM118.043 83.7754H117.395V79.8972H118.531C119.273 79.8972 119.772 80.3737 119.772 80.9665C119.772 81.3709 119.578 81.6922 119.262 81.8806C119.589 82.0579 119.761 82.3848 119.761 82.7947V83.7754H119.118V82.8668C119.118 82.4069 118.885 82.2186 118.425 82.2186H118.043V83.7754ZM118.043 80.5066V81.6424H118.492C118.869 81.6424 119.118 81.4152 119.118 81.0607C119.118 80.7282 118.869 80.5066 118.492 80.5066H118.043ZM120.706 83.7754H121.36V79.8972H120.706V83.7754ZM124.693 82.6839C124.699 83.3765 124.172 83.8474 123.474 83.8474C122.743 83.8474 122.2 83.31 122.2 82.5344H122.854C122.854 82.9554 123.109 83.2435 123.474 83.2435C123.812 83.2435 124.051 83.0108 124.051 82.6839C124.051 82.2817 123.698 82.1759 123.304 82.0579C122.809 81.9094 122.25 81.7416 122.25 80.9388C122.25 80.285 122.732 79.8252 123.402 79.8252C124.139 79.8252 124.605 80.346 124.605 81.0551H123.956C123.951 80.695 123.724 80.4346 123.397 80.4346C123.098 80.4346 122.882 80.6451 122.882 80.9166C122.882 81.3103 123.22 81.4024 123.604 81.5069C124.106 81.6436 124.687 81.8017 124.693 82.6839Z" fill="#0E153F"/>
<path d="M4.26953 23.3423C4.26953 35.7949 14.4756 46.001 26.9282 46.001C34.6951 46.001 42.141 41.8929 46.0565 35.2172H44.5802C42.2694 40.6733 37.0059 44.2037 30.6512 44.2037C18.5837 44.2037 7.60736 31.8794 7.60736 19.1058C7.60736 9.15653 14.4756 2.41669 22.8201 2.41669C28.4046 2.41669 34.3741 5.04844 38.9316 9.9268H45.0937C40.7288 3.95723 33.8606 0.683594 26.9282 0.683594C14.4756 0.683594 4.26953 10.8254 4.26953 23.3423Z" fill="#0E153F"/>
<path d="M91.5333 0.876953H80.4928L83.959 4.47153L68.3611 39.2619L50.5166 0.876953H46.3443L49.2328 6.46139V42.2146L45.7666 45.8092H53.1483L49.6821 42.2146V7.36003L67.2699 45.8092H68.5537V39.9038L84.2158 5.11343V42.2146L80.7496 45.8092H91.5333L88.0671 42.2146V4.47153L91.5333 0.876953Z" fill="#0E153F"/>
<path d="M128.166 45.8092H135.74L132.21 42.1504L136.254 30.2113H152.815L157.308 42.2146L153.842 45.8092H164.946L161.48 42.2146L145.497 0.876953H143.7V7.36003L131.632 42.2146L128.166 45.8092ZM136.254 30.2113L143.956 8.00192L152.815 30.2113H144.534H136.254Z" fill="#0E153F"/>
<path d="M118.43 45.9377C125.619 45.9377 130.369 41.8297 130.369 34.3195C130.369 25.5257 122.923 22.5088 117.467 19.9412C119.649 17.1811 122.666 17.502 127.031 17.502H129.213L130.369 13.2656C124.271 13.2656 120.42 15.5764 117.082 19.7487L110.021 16.6034C113.038 14.2926 114.643 12.1744 114.643 8.64397C114.643 4.47169 110.791 1.39062 105.977 1.39062C100.97 1.39062 97.119 4.53588 97.119 9.35005C97.119 16.7318 108.48 21.225 114.45 23.7926L109.507 33.806C108.93 32.5864 107.261 29.1202 107.004 28.6709C103.987 22.4446 98.2102 17.1811 91.9839 17.1811C89.8014 17.1811 87.6832 17.7588 85.7575 18.9784C81.3927 21.6101 78.7609 26.1034 78.7609 31.0459C78.5684 38.8128 85.1798 45.9377 93.4602 45.9377C95.6426 45.9377 97.9534 45.4884 100.393 44.5898C103.345 43.3702 105.464 41.1878 107.261 38.4918C109.828 42.4074 113.166 45.9377 118.43 45.9377ZM98.4669 6.84668C98.4669 3.70143 102.511 1.71157 105.977 1.71157C110.021 1.71157 114.257 4.4075 114.257 8.64397C114.257 12.1744 112.653 14.1642 109.636 16.475C104.244 13.9717 98.4669 10.5696 98.4669 6.84668ZM100.2 44.2046C97.6967 45.1675 95.4501 45.5526 93.4602 45.5526C86.592 45.5526 79.1461 39.904 79.1461 31.0459C79.1461 26.4243 81.5211 21.9311 85.9501 19.2993C87.1055 18.5933 88.3251 18.2081 89.6089 18.2081C90.2508 18.2081 90.8926 18.3365 91.5987 18.5291C95.7068 19.6845 100.136 24.5628 103.666 31.8804C104.629 33.8702 105.72 36.0526 107.068 38.1067C105.271 40.8668 103.153 42.9851 100.2 44.2046ZM114.835 23.9851L116.697 24.8196C121.19 26.8736 129.342 31.6878 129.342 37.0797C129.342 41.4445 124.72 45.0391 120.741 45.0391C116.055 45.0391 112.524 39.6472 109.764 34.2554L114.835 23.9851Z" fill="#0E153F"/>
</svg>
